<?xml version="1.0" encoding="UTF-8"?>
<svg id="Layer_1" xmlns="http://www.w3.org/2000/svg" version="1.1" viewBox="0 0 100 100">
  <!-- Generator: Adobe Illustrator 30.3.0, SVG Export Plug-In . SVG Version: 2.1.3 Build 182)  -->
  <defs>
    <style>
      .st0 {
        fill: #ff6632;
      }

      .st1 {
        fill: #ff9a6e;
      }

      .st2 {
        fill: #e2dc00;
      }

      .st3 {
        fill: #7d95ff;
      }
    </style>
  </defs>
  <path class="st2" d="M40.35,50.04h-20c0-16.54,13.46-30,30-30v20c-5.51,0-10,4.49-10,10Z"/>
  <path class="st3" d="M40.35,50.04h-20c0,16.54,13.46,30,30,30v-20c-5.51,0-10-4.49-10-10Z"/>
  <path class="st0" d="M60.35,50.04h20c0-16.54-13.46-30-30-30v20c5.51,0,10,4.49,10,10Z"/>
  <path class="st1" d="M60.35,50.04h20c0,16.54-13.46,30-30,30v-20c5.51,0,10-4.49,10-10Z"/>
</svg>